# xmcd
#
# Track frame offsets:
#	150
#	11122
#	27982
#	40790
#	56587
#	70082
#	83322
#	93835
#	108757
#	123670
#	138950
#	152800
#	164352
#
# Disc length: 2344 seconds
#
# Revision: 3
# Processed by: cddbd v1.5.2PL0 Copyright (c) Steve Scherf et al.
# Submitted via: audiograbber 1.83.01
#
DISCID=9a09260d
DTITLE=Janie Fricke - Now and Then (Branson Signature Edition)
DYEAR=1993
DGENRE=Country
TTITLE0=She's Single Again
TTITLE1=It Ain't Easy Being Easy
TTITLE2=He's A Heartache
TTITLE3=Always Have Always Will
TTITLE4=Your Heart's Not In It
TTITLE5=I'll Need Someone To Hold Me
TTITLE6=Do Me With Love
TTITLE7=You Don't Know Love
TTITLE8=Let's Try Again
TTITLE9=The First Word In Memory Is Me
TTITLE10=Somebody Else's Fire
TTITLE11=If The Fall Don't Get You
TTITLE12=Where's The Fire
EXTD=
EXTT0=
EXTT1=
EXTT2=
EXTT3=
EXTT4=
EXTT5=
EXTT6=
EXTT7=
EXTT8=
EXTT9=
EXTT10=
EXTT11=
EXTT12=
PLAYORDER=
